<?xml version="1.0" encoding="UTF-8"?>
<svg id="Camada_1" data-name="Camada 1" xmlns="http://www.w3.org/2000/svg" viewBox="0 0 1366 768">
  <defs>
    <style>
      .cls-1 {
        fill: #fff;
        stroke-width: 0px;
      }
    </style>
  </defs>
  <g>
    <path class="cls-1" d="M135.47,370.97v-23.53c0-40.25-1.19-62.04-3.57-65.37-.64-.95-2.77-2.22-6.42-3.8-2.7-1.11-4.64-2.18-5.82-3.21-1.19-1.03-1.78-2.57-1.78-4.63,0-5.86,5.7-8.79,17.11-8.79,3.17,0,7.84.04,14.02.12,6.18.08,10.77.12,13.79.12,7.29,0,12.64-.2,16.04-.59,3.41-.39,10.26-.59,20.56-.59,38.66,0,58,15.13,58,45.4,0,7.13-.99,13.51-2.97,19.13-1.98,5.63-4.48,10.26-7.49,13.91-3.01,3.65-6.74,6.77-11.17,9.39-4.44,2.62-8.52,4.56-12.24,5.82-3.73,1.27-7.89,2.26-12.48,2.97-4.6.71-8.12,1.15-10.58,1.31-2.46.16-4.95.24-7.49.24s-6.26-.16-11.17-.48c-4.91-.32-8.72-.47-11.41-.47-.95,0-1.66.04-2.14.12-.48.08-.99.64-1.54,1.66-.56,1.03-.83,2.58-.83,4.64v7.13c0,27.42,1.34,42.47,4.04,45.16.79.79,2.61,1.66,5.47,2.62,4.91,1.59,7.37,4.12,7.37,7.61,0,1.11-.24,2.14-.71,3.09-.48.95-1.19,1.78-2.14,2.5s-1.9,1.31-2.85,1.78c-.95.48-2.26.83-3.92,1.07-1.66.24-3.09.48-4.28.71-1.19.24-2.77.36-4.75.36h-27.81c-1.98,0-3.57-.12-4.75-.36-1.19-.24-2.58-.48-4.16-.71-1.59-.24-2.89-.59-3.92-1.07-1.03-.47-2.02-1.07-2.97-1.78s-1.63-1.54-2.02-2.5c-.4-.95-.59-1.98-.59-3.09,0-3.48,2.53-6.1,7.61-7.84,2.53-.95,4.28-1.82,5.23-2.62,3.17-2.85,4.75-17.98,4.75-45.4ZM166.37,317.96v23.29c5.39.48,10.7.71,15.93.71,4.59,0,8.59-.16,12-.47,3.41-.32,7.09-1.15,11.05-2.5,3.96-1.34,7.21-3.21,9.75-5.59,2.53-2.38,4.67-5.66,6.42-9.86,1.74-4.2,2.61-9.23,2.61-15.09,0-21.87-13-32.8-38.98-32.8-2.54,0-4.48.04-5.82.12-1.35.08-2.93.28-4.75.59-1.82.32-3.25.95-4.28,1.9-1.03.95-1.78,2.14-2.26,3.57-1.11,3.49-1.66,15.53-1.66,36.13Z"/>
    <path class="cls-1" d="M355.34,373.82h-59.66c-3.01,0-4.99.08-5.94.24-.95.16-1.75.68-2.38,1.54-.63.87-.95,2.5-.95,4.87,0,9.98,3.6,18.62,10.82,25.91,7.21,7.29,15.96,10.93,26.27,10.93,9.66,0,17.91-2.69,24.72-8.08l4.28-3.33c3.96-3.33,7.13-4.99,9.51-4.99,1.58,0,3.01.56,4.28,1.66,1.27,1.11,1.9,2.54,1.9,4.28,0,3.96-3.73,9.11-11.17,15.45-12.84,10.78-26.38,16.16-40.65,16.16-17.75,0-32.37-5.86-43.86-17.59-11.49-11.73-17.23-26.23-17.23-43.5,0-18.86,5.94-34.38,17.83-46.59,11.88-12.2,26.94-18.3,45.16-18.3,15.37,0,27.65,4.44,36.84,13.31,9.19,8.88,13.79,20.84,13.79,35.89,0,5.39-.87,8.76-2.61,10.1-1.75,1.35-5.39,2.02-10.93,2.02ZM294.97,360.04h39.22c3.33,0,5.43-.36,6.3-1.07.87-.71,1.31-1.86,1.31-3.45,0-7.76-2.7-14.3-8.08-19.61-5.39-5.31-11.88-7.96-19.49-7.96s-13.75,2.66-18.9,7.96c-5.15,5.31-7.73,11.85-7.73,19.61,0,1.59.43,2.73,1.31,3.45.87.71,2.89,1.07,6.06,1.07Z"/>
    <path class="cls-1" d="M424.27,331.99l1.19.47c3.01-5.38,6.93-10.06,11.77-14.02,4.83-3.96,9.78-5.94,14.86-5.94,4.59,0,8.79,1.43,12.6,4.28,3.8,2.85,5.71,7.69,5.71,14.5,0,6.02-1.39,10.5-4.16,13.43-2.77,2.93-6.22,4.4-10.34,4.4s-8-1.58-11.17-4.75c-1.11-1.11-2.06-2.69-2.85-4.75-.64-1.43-1.07-2.29-1.31-2.61-.24-.32-.75-.48-1.54-.48-5.39,0-9.19,3.8-11.41,11.41-2.22,8.4-3.33,22.58-3.33,42.55,0,14.58,1.11,23.29,3.33,26.15,1.27,1.75,3.8,3.09,7.61,4.04,4.91,1.43,7.37,3.65,7.37,6.66,0,3.49-2.34,5.86-7.01,7.13-4.68,1.27-12.4,1.9-23.18,1.9h-1.9c-4.6,0-8.08-.04-10.46-.12-2.38-.08-5.23-.4-8.56-.95-3.33-.55-5.7-1.5-7.13-2.85-1.43-1.34-2.14-3.13-2.14-5.35,0-1.27.36-2.38,1.07-3.33.71-.95,1.34-1.55,1.9-1.78.55-.24,1.54-.59,2.97-1.07,3.48-1.27,5.86-3.25,7.13-5.94,1.27-2.69,1.82-7.53,1.66-14.5l-.24-24.96c-.16-14.58-.52-24.13-1.07-28.64-.56-4.52-1.71-7.41-3.45-8.68-.79-.63-2.1-1.19-3.92-1.66-1.82-.48-3.61-1.11-5.35-1.9-2.38-1.43-3.57-3.09-3.57-4.99,0-3.64,3.25-6.66,9.75-9.03,14.26-4.91,23.29-7.37,27.1-7.37,2.69,0,4.52,1.15,5.47,3.45.95,2.3,1.74,6.62,2.38,12.95l.24,2.38Z"/>
    <path class="cls-1" d="M530,362.63l7.61,3.91c6.56,3.12,11.45,5.72,14.65,7.83,3.2,2.1,6.16,5.18,8.88,9.23,2.72,4.05,4.08,8.88,4.08,14.48,0,12.04-4.4,21.79-13.19,29.24-8.79,7.45-19.45,11.17-31.97,11.17-4.44,0-9.03-.48-13.79-1.43-4.75-.95-7.29-1.43-7.61-1.43-.64,0-1.78.48-3.45,1.43-1.66.95-3.29,1.43-4.87,1.43-1.9,0-3.57-.71-4.99-2.14-2.85-2.53-5.39-7.01-7.61-13.43-2.22-6.42-3.33-11.92-3.33-16.52,0-7.29,2.38-10.93,7.13-10.93,1.74,0,3.41.59,4.99,1.78,1.58,1.19,2.69,2.26,3.33,3.21.63.95,1.58,2.54,2.85,4.75,2.22,3.8,3.8,6.26,4.75,7.37,5.55,6.81,13.23,10.22,23.06,10.22,6.02,0,10.46-1.46,13.31-4.38,2.85-2.92,4.28-6.51,4.28-10.78,0-1.74-.32-3.36-.96-4.86-.64-1.5-1.27-2.72-1.91-3.67-.64-.95-1.87-2.01-3.7-3.2s-3.11-2.01-3.82-2.49c-.72-.48-2.34-1.35-4.88-2.62-2.54-1.27-4.16-2.08-4.87-2.44l-7.2-3.6c-5.55-2.69-9.79-4.95-12.72-6.77-2.93-1.82-6.14-4.2-9.63-7.13-3.49-2.93-5.98-6.26-7.49-9.98-1.51-3.72-2.26-7.96-2.26-12.72,0-10.62,3.68-19.21,11.05-25.79,7.37-6.57,16.44-9.87,27.22-9.87,6.66,0,12.75.64,18.3,1.9,4.12-1.9,7.13-2.85,9.03-2.85,4.59,0,8.68,3.41,12.24,10.22,3.57,6.82,5.35,13.23,5.35,19.25s-2.38,9.03-7.13,9.03c-1.75,0-3.45-.67-5.11-2.02-1.66-1.34-2.82-2.5-3.45-3.45-.64-.95-1.75-2.62-3.33-4.99-5.39-8.87-12.36-13.31-20.92-13.31-5.07,0-8.95,1.45-11.65,4.34-2.7,2.9-4.04,6.27-4.04,10.13,0,1.93.43,3.74,1.28,5.43.85,1.69,1.75,3.1,2.69,4.22.93,1.13,2.45,2.41,4.55,3.86,2.1,1.45,3.71,2.46,4.84,3.04s3,1.54,5.61,2.88c2.61,1.34,4.19,2.15,4.76,2.44Z"/>
    <path class="cls-1" d="M618.47,321.05v5.94c0,2.06.39,3.09,1.19,3.09.47,0,1.43-.71,2.85-2.14,1.11-1.11,3.09-2.62,5.94-4.52,10.14-7.29,19.65-10.93,28.52-10.93,13.79,0,25.75,5.19,35.89,15.57,10.14,10.38,15.21,24.92,15.21,43.62,0,20.44-5.71,36.61-17.11,48.49-11.41,11.88-24.33,17.83-38.75,17.83-6.5,0-13.95-1.59-22.34-4.75-1.27-.48-2.5-.99-3.68-1.54-1.19-.55-2.06-.99-2.61-1.31-.56-.32-1.03-.59-1.43-.83-.4-.24-.75-.36-1.07-.36-1.75,0-2.61,3.17-2.61,9.51v5.23c0,9.66,1.03,15.84,3.09,18.54.95,1.11,3.25,2.14,6.89,3.09,5.54,1.27,8.32,3.72,8.32,7.37s-2.62,5.94-7.84,6.89c-5.23.95-13.07,1.43-23.53,1.43h-8.32c-.95,0-2.38-.04-4.28-.12-1.9-.08-3.37-.2-4.4-.36-1.03-.16-2.34-.36-3.92-.59-1.59-.24-2.82-.59-3.68-1.07-.87-.48-1.75-.99-2.61-1.54-.87-.56-1.51-1.27-1.9-2.14-.4-.87-.59-1.86-.59-2.97,0-3.01,2.22-5.31,6.66-6.89,2.06-.64,3.64-1.51,4.75-2.62,2.85-3.17,4.28-20.36,4.28-51.58v-19.73c0-20.12-.24-33.59-.71-40.41-.47-6.81-1.9-11.17-4.28-13.07-.79-.63-2.1-1.15-3.92-1.54-1.82-.39-3.61-1.07-5.35-2.02-2.38-1.11-3.57-2.77-3.57-4.99,0-3.33,3.09-6.26,9.27-8.79,12.2-5.07,21.95-7.61,29.24-7.61,4.28,0,6.42,2.61,6.42,7.84ZM619.66,362.18v33.04c0,7.29.79,12.04,2.38,14.26,2.85,3.96,6.69,7.01,11.53,9.15,4.83,2.14,9.54,3.21,14.14,3.21,8.24,0,15.21-3.52,20.92-10.58,5.71-7.05,8.56-17.31,8.56-30.78,0-14.74-3.05-26.07-9.15-33.99-6.1-7.92-13.99-11.88-23.65-11.88-7.29,0-13.23,2.34-17.83,7.01-4.6,4.68-6.89,11.53-6.89,20.56Z"/>
    <path class="cls-1" d="M823.12,373.82h-59.66c-3.01,0-4.99.08-5.94.24-.95.16-1.75.68-2.38,1.54-.64.87-.95,2.5-.95,4.87,0,9.98,3.6,18.62,10.82,25.91,7.21,7.29,15.96,10.93,26.27,10.93,9.66,0,17.91-2.69,24.72-8.08l4.28-3.33c3.96-3.33,7.13-4.99,9.51-4.99,1.58,0,3.01.56,4.28,1.66,1.27,1.11,1.9,2.54,1.9,4.28,0,3.96-3.72,9.11-11.17,15.45-12.84,10.78-26.38,16.16-40.65,16.16-17.75,0-32.37-5.86-43.86-17.59-11.49-11.73-17.23-26.23-17.23-43.5,0-18.86,5.94-34.38,17.83-46.59,11.89-12.2,26.94-18.3,45.16-18.3,15.37,0,27.65,4.44,36.84,13.31,9.19,8.88,13.79,20.84,13.79,35.89,0,5.39-.87,8.76-2.61,10.1-1.75,1.35-5.39,2.02-10.93,2.02ZM762.75,360.04h39.22c3.33,0,5.43-.36,6.3-1.07.87-.71,1.31-1.86,1.31-3.45,0-7.76-2.7-14.3-8.08-19.61-5.39-5.31-11.89-7.96-19.49-7.96s-13.75,2.66-18.9,7.96c-5.15,5.31-7.73,11.85-7.73,19.61,0,1.59.43,2.73,1.31,3.45.87.71,2.89,1.07,6.06,1.07Z"/>
    <path class="cls-1" d="M850.7,377.39c0-18.07,5.98-33.4,17.95-46,11.96-12.6,27.13-18.9,45.52-18.9,14.42,0,25.99,3.68,34.7,11.05,8.71,7.37,13.07,15.18,13.07,23.41,0,3.96-1.35,7.09-4.04,9.39-2.7,2.3-5.94,3.45-9.75,3.45-2.22,0-4.2-.36-5.94-1.07-1.75-.71-3.09-1.34-4.04-1.9-.95-.55-2.06-1.86-3.33-3.92-1.27-2.06-2.02-3.37-2.26-3.92-.24-.55-.99-2.18-2.26-4.87-2.7-5.71-5.55-9.71-8.56-12-3.01-2.29-6.97-3.45-11.88-3.45-9.35,0-16.64,3.57-21.87,10.7s-7.84,16.56-7.84,28.29c0,15.85,3.92,28.01,11.77,36.49,7.84,8.48,17.31,12.72,28.41,12.72,3.96,0,7.72-.59,11.29-1.78s6.14-2.34,7.73-3.45c1.58-1.11,3.72-2.69,6.42-4.75,4.12-3.33,7.52-4.99,10.22-4.99,3.64,0,5.47,1.82,5.47,5.47,0,5.7-4.91,12.32-14.74,19.85-9.83,7.53-21.87,11.29-36.13,11.29-17.27,0-31.58-5.86-42.9-17.59-11.33-11.73-17-26.23-17-43.5Z"/>
    <path class="cls-1" d="M1015.66,315.83h27.1c2.22,0,3.64.36,4.28,1.07.63.71.95,2.26.95,4.64v2.85c0,3.96-1.75,5.94-5.23,5.94h-24.96c-1.75,0-2.62,1.27-2.62,3.8v60.14c0,10.3.71,16.64,2.14,19.02,2.06,3.01,5.47,4.52,10.22,4.52,1.43,0,5.07-.79,10.93-2.38,3.33-1.11,5.71-1.66,7.13-1.66,2.22,0,3.8.63,4.75,1.9.95,1.27,1.43,2.54,1.43,3.8,0,4.28-3.45,8.52-10.34,12.72-6.89,4.2-14.54,6.3-22.94,6.3-10.62,0-18.62-2.62-24.01-7.84-3.49-3.48-5.67-7.61-6.54-12.36-.87-4.75-1.31-11.41-1.31-19.97v-67.98h-11.17c-3.01,0-4.52-1.34-4.52-4.04v-2.85c0-1.11.24-2.18.71-3.21.48-1.03,1.23-2.06,2.26-3.09,1.03-1.03,1.94-1.94,2.73-2.73.79-.79,1.98-1.78,3.57-2.97,1.58-1.19,2.69-2.1,3.33-2.73l9.75-8.32,3.09-2.62c1.9-1.74,3.17-2.85,3.8-3.33.63-.48,1.74-1.27,3.33-2.38,1.58-1.11,2.97-1.86,4.16-2.26,1.19-.39,2.34-.59,3.45-.59,3.01,0,4.52,1.35,4.52,4.04v22.58Z"/>
    <path class="cls-1" d="M1074.37,400.45v-30.43c0-11.72-.24-19.65-.71-23.77-.48-4.12-1.66-6.81-3.57-8.08-.48-.32-2.38-1.03-5.71-2.14-1.59-.47-2.82-.91-3.68-1.31-.87-.39-1.7-1.03-2.5-1.9-.79-.87-1.19-1.94-1.19-3.21,0-3.17,3.25-6.18,9.75-9.03,5.39-2.38,11.21-4.32,17.47-5.82,6.26-1.5,10.82-2.26,13.67-2.26,4.12,0,6.18,3.41,6.18,10.22,0,8.4-.28,20.8-.83,37.2-.56,16.4-.83,28.64-.83,36.72,0,7.13.36,12.36,1.07,15.69.71,3.33,1.58,5.35,2.62,6.06,1.03.71,2.89,1.54,5.59,2.5,2.06.63,3.6,1.43,4.63,2.38,1.03.95,1.54,2.46,1.54,4.52,0,3.01-1.86,5.19-5.59,6.54-3.72,1.34-11.05,2.02-21.99,2.02-.79,0-2.58.04-5.35.12-2.77.08-4.75.08-5.94,0-1.19-.08-3.01-.2-5.47-.36-2.46-.16-4.32-.44-5.59-.83-1.27-.39-2.61-.91-4.04-1.54-1.43-.63-2.46-1.5-3.09-2.62-.63-1.11-.95-2.46-.95-4.04,0-1.27.36-2.38,1.07-3.33.71-.95,1.34-1.55,1.9-1.78.55-.24,1.54-.59,2.97-1.07,3.64-1.27,5.98-3.25,7.01-5.94,1.03-2.69,1.54-7.53,1.54-14.5ZM1072.11,286.71c-3.25-2.93-4.87-6.38-4.87-10.34s1.78-7.73,5.35-11.29,8.28-5.35,14.14-5.35c5.07,0,9.39,1.47,12.96,4.4,3.57,2.93,5.35,6.62,5.35,11.05,0,3.96-1.78,7.61-5.35,10.93-3.57,3.33-8.36,4.99-14.38,4.99-5.55,0-9.95-1.46-13.19-4.4Z"/>
    <path class="cls-1" d="M1184.42,439.67c-3.96,0-8.44-4.71-13.43-14.14-4.99-9.43-12.4-25.95-22.22-49.56-1.75-4.12-3.61-8.75-5.59-13.91-1.98-5.15-3.49-9.07-4.52-11.77-1.03-2.69-2.22-5.43-3.57-8.2-1.35-2.77-2.58-4.91-3.68-6.42-1.11-1.5-2.38-2.57-3.8-3.21-.79-.47-2.02-1.03-3.68-1.66-1.66-.63-2.89-1.15-3.68-1.54-.79-.39-1.54-1.11-2.26-2.14-.71-1.03-1.07-2.18-1.07-3.45,0-3.64,2.34-6.02,7.01-7.13,4.67-1.11,12.96-1.66,24.84-1.66,10.3,0,17.55.59,21.75,1.78,4.2,1.19,6.3,3.53,6.3,7.01,0,3.01-.95,4.99-2.85,5.94-.95.48-2.1.99-3.45,1.55-1.35.56-2.34.99-2.97,1.31-.64.32-1.23.79-1.78,1.43-.56.63-.83,1.35-.83,2.14,0,2.54,3.96,13.55,11.89,33.04,7.92,19.33,12.83,29,14.74,29,2.06,0,5.15-4.59,9.27-13.79,11.57-25.51,17.35-40.96,17.35-46.35,0-3.48-1.27-5.86-3.8-7.13-.79-.47-1.9-.95-3.33-1.43-1.43-.48-2.42-.87-2.97-1.19-.56-.32-1.11-.87-1.66-1.66-.56-.79-.83-1.82-.83-3.09,0-3.33,1.98-5.59,5.94-6.77,3.96-1.19,10.61-1.78,19.97-1.78,8.08,0,13.91.59,17.47,1.78s5.35,3.37,5.35,6.54c0,2.06-.36,3.57-1.07,4.52-.71.95-2.26,1.78-4.63,2.5s-3.96,1.23-4.75,1.54c-.95.48-1.82,1.07-2.62,1.78-.79.71-1.63,1.75-2.5,3.09-.87,1.35-1.66,2.58-2.38,3.68-.71,1.11-1.59,2.81-2.61,5.11-1.03,2.3-1.86,4.16-2.5,5.59-.63,1.43-1.66,3.8-3.09,7.13s-2.54,5.86-3.33,7.61c-15.53,35.34-25.2,56.26-29,62.75-4.44,7.45-8.24,11.17-11.41,11.17Z"/>
  </g>
  <g>
    <path class="cls-1" d="M1017.33,507.79c0-7.42-4.45-8.99-14.66-9.86-12.22-1.13-15.19-5.85-15.19-12.13v-.44c0-7.07,5.67-12.48,16.5-12.48,12.31,0,16.58,6.63,16.58,15.36v.35h-3.49c0-7.59-2.97-12.39-13.09-12.39-8.03,0-12.83,3.32-12.83,9.34,0,5.5,2.53,8.55,14.14,9.51,11.61.87,15.71,4.54,15.71,12.57v.35c0,7.42-6.2,12.92-17.02,12.92-13.01,0-17.02-8.12-17.02-14.49v-.35h3.49c0,5.76,2.79,11.52,13.53,11.52,8.55,0,13.35-3.75,13.35-9.78Z"/>
    <path class="cls-1" d="M1055.29,473.75v3.32h-15.71v30.72c0,7.85,3.23,9.78,9.6,9.78,2.09,0,4.45-.44,5.24-.79v3.23c-.61.26-2.62.87-6.11.87-6.98,0-12.22-3.49-12.22-12.66v-31.16h-7.42v-3.32h7.42v-13.09h3.49v13.09h15.71Z"/>
    <path class="cls-1" d="M1068.82,473.75v32.29c0,8.29,4.8,11.52,11.35,11.52,8.29,0,12.22-4.54,14.4-8.03v-35.79h3.49v33.17l.44,13.09h-2.62l-.87-6.72c-2.53,4.01-7.51,7.59-15.71,7.59-8.73,0-13.96-5.67-13.96-14.4v-32.73h3.49Z"/>
    <path class="cls-1" d="M1140.4,479.51v-29.33h3.49v56.73l.44,13.09h-2.62l-.87-6.55c-2.27,3.93-6.63,7.42-13.96,7.42-12.66,0-17.89-10.47-17.89-23.13v-1.75c0-12.66,5.24-23.13,17.89-23.13,6.89,0,11.08,3.05,13.53,6.63ZM1140.4,484.23c-2.18-3.49-6.02-8.03-13.09-8.03-9.86,0-14.66,7.77-14.66,19.81v1.75c0,12.04,4.8,19.81,14.66,19.81,7.07,0,10.91-4.54,13.09-8.03v-25.31Z"/>
    <path class="cls-1" d="M1161.35,461.1h-5.24v-5.24h5.24v5.24ZM1156.98,473.75h3.49v46.26h-3.49v-46.26Z"/>
    <path class="cls-1" d="M1172.26,497.75v-1.75c0-12.66,5.59-23.13,18.76-23.13s18.77,10.47,18.77,23.13v1.75c0,12.66-5.59,23.13-18.77,23.13s-18.76-10.47-18.76-23.13ZM1206.12,497.75v-1.75c0-11.78-4.71-19.81-15.1-19.81s-15.1,8.03-15.1,19.81v1.75c0,11.78,4.71,19.81,15.1,19.81s15.1-8.03,15.1-19.81Z"/>
    <path class="cls-1" d="M1250.64,507.79c0-7.42-4.45-8.99-14.66-9.86-12.22-1.13-15.19-5.85-15.19-12.13v-.44c0-7.07,5.67-12.48,16.5-12.48,12.31,0,16.58,6.63,16.58,15.36v.35h-3.49c0-7.59-2.97-12.39-13.09-12.39-8.03,0-12.83,3.32-12.83,9.34,0,5.5,2.53,8.55,14.14,9.51,11.61.87,15.71,4.54,15.71,12.57v.35c0,7.42-6.2,12.92-17.02,12.92-13,0-17.02-8.12-17.02-14.49v-.35h3.49c0,5.76,2.79,11.52,13.53,11.52,8.55,0,13.35-3.75,13.35-9.78Z"/>
  </g>
</svg>